<svg id="Layer_1" data-name="Layer 1" xmlns="http://www.w3.org/2000/svg" viewBox="0 0 233.52 46.28"><defs><style>.cls-1{fill:#ff9419;}.cls-2{fill:#111;}.cls-3{fill:#757575;}</style></defs><path class="cls-1" d="M34.16,13.09H33c0-.07,0-.11,0-.15s0-.18.08-.26a11.08,11.08,0,0,0,.2-5.74A8.51,8.51,0,0,0,26.59.27,8.51,8.51,0,0,0,17.7,3.4l-.25.29-.27-.34a8.78,8.78,0,0,0-14.42.91,10,10,0,0,0-1.09,7.49c.09.44.21.88.32,1.35-.49,0-.94,0-1.38,0a.63.63,0,0,0,0,1.25H.94c3,0,5.92,0,8.89,0a1,1,0,0,1,.58.21c.84.67,1.65,1.37,2.47,2.06a.63.63,0,0,0,1.06-.21c.12-.21.23-.44.34-.66l1.55-3,.29.41q1.65,2.51,3.32,5c.41.62.76.66,1.29.14,1.24-1.23,2.48-2.47,3.74-3.69a1,1,0,0,1,.6-.24c3,0,6.06,0,9.08,0,.47,0,.75-.24.77-.61S34.63,13.1,34.16,13.09Z"/><path class="cls-1" d="M25.47,15.63a.75.75,0,0,0-.46.21c-1.16,1.13-2.31,2.28-3.46,3.42a1.88,1.88,0,0,1-3.09-.32L16.24,15.6,16,15.23c-.32.61-.6,1.17-.89,1.72a1.86,1.86,0,0,1-3.05.62c-.71-.59-1.4-1.19-2.11-1.77a.71.71,0,0,0-.4-.17H3A24,24,0,0,0,5.76,19.9a42,42,0,0,0,10.46,9.31c.4.26.82.7,1.23.7s.85-.44,1.27-.71A40.46,40.46,0,0,0,29.85,19c.75-1.05,1.39-2.17,2.13-3.33l-.31,0Z"/><path class="cls-2" d="M57.17,17.09c-.37,1.09-.72,2.37-1.06,3.84H56a21.78,21.78,0,0,0-1-3.8L49.62,1.36H40.84V28h5.4V13.25q0-3-.24-6.9h.17A35.18,35.18,0,0,0,47,10.06L53.35,28h4.9L64.48,9.87a27.56,27.56,0,0,0,.83-3.52h.15c-.15,2.08-.22,4-.22,5.69V28h5.92V1.36H62.61Z"/><polygon class="cls-2" points="82.82 17.02 91.52 17.02 91.52 12.15 82.82 12.15 82.82 6.24 92.17 6.24 92.17 1.36 76.83 1.36 76.83 27.96 92.78 27.96 92.78 23.1 82.82 23.1 82.82 17.02"/><path class="cls-2" d="M106.1,1.36H96.67V28h9.43q6.44,0,10.31-3.71a13.13,13.13,0,0,0,3.86-9.92Q120.27,1.35,106.1,1.36Zm5.65,19.4a8,8,0,0,1-6.12,2.34h-3V6.24h2.93a8.37,8.37,0,0,1,6.17,2.18,8,8,0,0,1,2.2,6A8.85,8.85,0,0,1,111.75,20.76Z"/><polygon class="cls-2" points="132.53 23.32 130.3 23.32 130.3 6 132.53 6 132.53 1.36 122.08 1.36 122.08 6 124.31 6 124.31 23.32 122.08 23.32 122.08 27.96 132.53 27.96 132.53 23.32"/><path class="cls-2" d="M155.05,21.54a12.49,12.49,0,0,1-6.42,1.71A7.67,7.67,0,0,1,142.78,21a8.57,8.57,0,0,1-2.17-6.15,8.74,8.74,0,0,1,2.3-6.38A8,8,0,0,1,149,6.07a11.67,11.67,0,0,1,6.09,1.59V1.89a19.27,19.27,0,0,0-6.57-1,13.75,13.75,0,0,0-10.23,4,14.07,14.07,0,0,0-3.95,10.36,13.15,13.15,0,0,0,3.51,9.59q3.51,3.6,9.63,3.6A17.58,17.58,0,0,0,155.05,27Z"/><path class="cls-2" d="M164.82,22h9.46L176.17,28h6.53l-9.46-26.6h-7.11L156.45,28h6.49ZM169,8.43a9.94,9.94,0,0,0,.46-2.32h.15a12,12,0,0,0,.45,2.39l2.86,8.94H166.1Z"/><path class="cls-2" d="M196.89,28.43a12.51,12.51,0,0,0,9.51-3.84A14.09,14.09,0,0,0,210,14.47a13.78,13.78,0,0,0-3.51-9.83A12.09,12.09,0,0,0,197.31.91a12.64,12.64,0,0,0-9.68,3.9A14.3,14.3,0,0,0,184,15a13.36,13.36,0,0,0,3.6,9.7A12.4,12.4,0,0,0,196.89,28.43Zm-4.75-20a6,6,0,0,1,5-2.36A5.74,5.74,0,0,1,202,8.37a10.34,10.34,0,0,1,1.76,6.44A9.61,9.61,0,0,1,201.92,21,6,6,0,0,1,197,23.25a6,6,0,0,1-4.86-2.3,9.66,9.66,0,0,1-1.86-6.25A9.87,9.87,0,0,1,192.14,8.43Z"/><path class="cls-2" d="M223.47,1.36h-9.39V28h6V18.8h2.86a11.43,11.43,0,0,0,7.71-2.48,8.13,8.13,0,0,0,2.88-6.48Q233.52,1.35,223.47,1.36Zm-1,12.89h-2.36V6h2.36q4.78,0,4.79,4.1T222.43,14.25Z"/><polygon class="cls-3" points="48.03 40.25 41.66 40.25 41.66 35.56 40.41 35.56 40.41 46.14 41.66 46.14 41.66 41.31 48.03 41.31 48.03 46.14 49.26 46.14 49.26 35.56 48.03 35.56 48.03 40.25"/><path class="cls-3" d="M58.11,38.91a3.25,3.25,0,0,0-1.74-.43,3.58,3.58,0,0,0-1.86.48,3.34,3.34,0,0,0-1.26,1.37,4.44,4.44,0,0,0-.45,2.06,3.89,3.89,0,0,0,1,2.86,3.78,3.78,0,0,0,2.79,1,4.76,4.76,0,0,0,1.6-.27,3.3,3.3,0,0,0,1.25-.74L59,44.42a3.37,3.37,0,0,1-1.13.66,3.8,3.8,0,0,1-1.27.21,2.62,2.62,0,0,1-2-.73A2.92,2.92,0,0,1,54,42.5h5.58v-.45a4.44,4.44,0,0,0-.38-1.9A2.79,2.79,0,0,0,58.11,38.91ZM54,41.73a3,3,0,0,1,.6-1.57,2.12,2.12,0,0,1,1.75-.78,1.94,1.94,0,0,1,1.61.67,2.82,2.82,0,0,1,.53,1.68Z"/><path class="cls-3" d="M68.39,40a2.41,2.41,0,0,0-.84-1,3,3,0,0,0-1.76-.51,3.24,3.24,0,0,0-1.75.46,3.14,3.14,0,0,0-1.17,1.34,5,5,0,0,0-.41,2.1,4.88,4.88,0,0,0,.41,2.08A3.14,3.14,0,0,0,64,45.8a3.17,3.17,0,0,0,1.75.48,3,3,0,0,0,1.74-.51,2.4,2.4,0,0,0,.83-1v1.33h1.21V40.35a8.38,8.38,0,0,1,0-.86c0-.3,0-.59.08-.88H68.52Zm-.65,4.54a2.31,2.31,0,0,1-3.41,0,3.18,3.18,0,0,1-.64-2.16,3.27,3.27,0,0,1,.64-2.19,2.33,2.33,0,0,1,3.41,0,3.33,3.33,0,0,1,.63,2.19A3.24,3.24,0,0,1,67.74,44.54Z"/><rect class="cls-3" x="73.43" y="35.1" width="1.21" height="11.04"/><path class="cls-3" d="M80.1,36.21l-1.21.35v2H77.42v1h1.47v4.15a2.78,2.78,0,0,0,.58,1.93,2.22,2.22,0,0,0,1.7.64,2.76,2.76,0,0,0,.57-.06,2.08,2.08,0,0,0,.51-.14v-1a3.31,3.31,0,0,1-.41.13,2.59,2.59,0,0,1-.51.05,1.11,1.11,0,0,1-.92-.38,2,2,0,0,1-.31-1.28v-4h2.16v-1H80.1Z"/><path class="cls-3" d="M89,38.48a3.27,3.27,0,0,0-1.72.45,2.43,2.43,0,0,0-.86,1V35.1H85.25v11h1.21V41.81a2.37,2.37,0,0,1,.62-1.7,2.24,2.24,0,0,1,1.68-.64,1.64,1.64,0,0,1,1.32.48,2.29,2.29,0,0,1,.42,1.53v4.66h1.21V41.4a3.2,3.2,0,0,0-.66-2.2A2.6,2.6,0,0,0,89,38.48Z"/><path class="cls-3" d="M104.42,42.09l-1.4-.28a1.69,1.69,0,0,1-.86-.42.93.93,0,0,1-.28-.71,1.12,1.12,0,0,1,.44-.92,2.09,2.09,0,0,1,1.33-.35,3.43,3.43,0,0,1,1.19.21,3,3,0,0,1,1,.66l.44-.84a3.13,3.13,0,0,0-1.17-.72,4.61,4.61,0,0,0-1.52-.24,3.68,3.68,0,0,0-1.54.29,2.33,2.33,0,0,0-1,.79,2,2,0,0,0-.34,1.17,1.78,1.78,0,0,0,.48,1.28,2.79,2.79,0,0,0,1.44.71L104,43a2.06,2.06,0,0,1,.95.41.88.88,0,0,1,.3.7,1,1,0,0,1-.46.89,2.42,2.42,0,0,1-1.36.32,4.44,4.44,0,0,1-1.36-.21,3.87,3.87,0,0,1-1.2-.64l-.42.85a3.62,3.62,0,0,0,1.29.7,5.68,5.68,0,0,0,1.68.25A4.11,4.11,0,0,0,105,46a2.35,2.35,0,0,0,1-.78,1.88,1.88,0,0,0,.37-1.17,1.67,1.67,0,0,0-.5-1.27A3.17,3.17,0,0,0,104.42,42.09Z"/><path class="cls-3" d="M114.74,38.91a3.25,3.25,0,0,0-1.74-.43,3.58,3.58,0,0,0-1.86.48,3.34,3.34,0,0,0-1.26,1.37,4.44,4.44,0,0,0-.45,2.06,3.89,3.89,0,0,0,1,2.86,3.78,3.78,0,0,0,2.79,1,4.66,4.66,0,0,0,1.59-.27,3.26,3.26,0,0,0,1.26-.74l-.42-.85a3.32,3.32,0,0,1-1.14.66,3.7,3.7,0,0,1-1.26.21,2.6,2.6,0,0,1-2-.73,2.92,2.92,0,0,1-.69-2.06h5.57v-.45a4.44,4.44,0,0,0-.37-1.9A2.79,2.79,0,0,0,114.74,38.91Zm-4.1,2.82a3.07,3.07,0,0,1,.6-1.57,2.14,2.14,0,0,1,1.76-.78,1.92,1.92,0,0,1,1.6.67,2.82,2.82,0,0,1,.53,1.68Z"/><path class="cls-3" d="M123,38.48a2.8,2.8,0,0,0-1.07.21,2.46,2.46,0,0,0-.88.66,2.23,2.23,0,0,0-.36.6l-.11-1.34h-1.17c0,.29,0,.59.07.9s0,.62,0,.92v5.71h1.23V41.7a2.26,2.26,0,0,1,.25-1.05,2,2,0,0,1,.73-.81,2.08,2.08,0,0,1,1.15-.31,2.89,2.89,0,0,1,.43,0,1.87,1.87,0,0,1,.41.1l0-1.08a1.14,1.14,0,0,0-.33-.08Z"/><polygon class="cls-3" points="129.76 44.75 127.26 38.61 125.94 38.61 129.16 46.14 130.32 46.14 133.54 38.61 132.28 38.61 129.76 44.75"/><rect class="cls-3" x="136.41" y="38.61" width="1.21" height="7.53"/><rect class="cls-3" x="136.26" y="35.54" width="1.5" height="1.36"/><path class="cls-3" d="M144.72,39.47a2.8,2.8,0,0,1,1,.21,3.05,3.05,0,0,1,1,.64l.43-.87a3,3,0,0,0-1.13-.72,4.2,4.2,0,0,0-3.32.2,3.15,3.15,0,0,0-1.27,1.31,5.21,5.21,0,0,0,0,4.19,3.16,3.16,0,0,0,1.26,1.37,3.71,3.71,0,0,0,1.93.48A3.91,3.91,0,0,0,146,46a3.06,3.06,0,0,0,1.16-.73l-.43-.86a2.91,2.91,0,0,1-1,.65,3,3,0,0,1-1,.19,2.26,2.26,0,0,1-1.82-.76,3.26,3.26,0,0,1-.64-2.16,3.17,3.17,0,0,1,.64-2.15A2.31,2.31,0,0,1,144.72,39.47Z"/><path class="cls-3" d="M155.1,38.91a3.25,3.25,0,0,0-1.74-.43,3.58,3.58,0,0,0-1.86.48,3.34,3.34,0,0,0-1.26,1.37,4.44,4.44,0,0,0-.45,2.06,3.89,3.89,0,0,0,1,2.86,3.78,3.78,0,0,0,2.79,1,4.76,4.76,0,0,0,1.6-.27,3.3,3.3,0,0,0,1.25-.74l-.42-.85a3.37,3.37,0,0,1-1.13.66,3.8,3.8,0,0,1-1.27.21,2.62,2.62,0,0,1-2-.73A2.92,2.92,0,0,1,151,42.5h5.58v-.45a4.44,4.44,0,0,0-.38-1.9A2.79,2.79,0,0,0,155.1,38.91ZM151,41.73a3,3,0,0,1,.6-1.57,2.12,2.12,0,0,1,1.75-.78,1.94,1.94,0,0,1,1.61.67,2.82,2.82,0,0,1,.52,1.68Z"/><path class="cls-3" d="M163.38,42.09l-1.4-.28a1.78,1.78,0,0,1-.86-.42,1,1,0,0,1-.27-.71,1.1,1.1,0,0,1,.44-.92,2,2,0,0,1,1.32-.35,3.53,3.53,0,0,1,1.2.21,3.23,3.23,0,0,1,1,.66l.43-.84a3.17,3.17,0,0,0-1.16-.72,4.66,4.66,0,0,0-1.52-.24,3.7,3.7,0,0,0-1.55.29,2.3,2.3,0,0,0-1,.79,2,2,0,0,0-.35,1.17,1.78,1.78,0,0,0,.48,1.28,2.79,2.79,0,0,0,1.44.71L163,43a2.16,2.16,0,0,1,1,.41.9.9,0,0,1,.29.7,1,1,0,0,1-.46.89,2.38,2.38,0,0,1-1.35.32,4.35,4.35,0,0,1-1.36-.21,3.81,3.81,0,0,1-1.21-.64l-.42.85a3.62,3.62,0,0,0,1.29.7,5.68,5.68,0,0,0,1.68.25A4.2,4.2,0,0,0,164,46a2.37,2.37,0,0,0,1-.78,1.88,1.88,0,0,0,.37-1.17,1.64,1.64,0,0,0-.5-1.27A3.12,3.12,0,0,0,163.38,42.09Z"/><path class="cls-3" d="M177.51,39.47a2.8,2.8,0,0,1,1,.21,2.91,2.91,0,0,1,1,.64l.44-.87a3,3,0,0,0-1.13-.72,4,4,0,0,0-1.41-.25,3.91,3.91,0,0,0-1.91.45,3.09,3.09,0,0,0-1.27,1.31,4.45,4.45,0,0,0-.45,2.09,4.58,4.58,0,0,0,.45,2.1,3.16,3.16,0,0,0,1.26,1.37,3.7,3.7,0,0,0,1.92.48,4,4,0,0,0,1.38-.26,3.06,3.06,0,0,0,1.16-.73l-.44-.86a2.88,2.88,0,0,1-1,.65,3,3,0,0,1-1,.19,2.25,2.25,0,0,1-1.82-.76,3.26,3.26,0,0,1-.64-2.16,3.17,3.17,0,0,1,.64-2.15A2.29,2.29,0,0,1,177.51,39.47Z"/><path class="cls-3" d="M187.89,38.91a3.25,3.25,0,0,0-1.74-.43,3.58,3.58,0,0,0-1.86.48A3.34,3.34,0,0,0,183,40.33a4.44,4.44,0,0,0-.45,2.06,3.89,3.89,0,0,0,1,2.86,3.78,3.78,0,0,0,2.79,1A4.76,4.76,0,0,0,188,46a3.3,3.3,0,0,0,1.25-.74l-.42-.85a3.37,3.37,0,0,1-1.13.66,3.8,3.8,0,0,1-1.27.21,2.62,2.62,0,0,1-2-.73,2.92,2.92,0,0,1-.69-2.06h5.58v-.45a4.44,4.44,0,0,0-.38-1.9A2.79,2.79,0,0,0,187.89,38.91Zm-4.09,2.82a3,3,0,0,1,.6-1.57,2.11,2.11,0,0,1,1.75-.78,1.91,1.91,0,0,1,1.6.67,2.82,2.82,0,0,1,.53,1.68Z"/><path class="cls-3" d="M196.47,38.48a3.16,3.16,0,0,0-1.69.45,2.56,2.56,0,0,0-.9,1l-.13-1.37h-1.17l.09.88c0,.29,0,.58,0,.86v5.79h1.22v-4.3a2.41,2.41,0,0,1,.61-1.73,2.2,2.2,0,0,1,1.67-.64,1.7,1.7,0,0,1,1.33.48,2.38,2.38,0,0,1,.42,1.56v4.63h1.22V41.43a3.16,3.16,0,0,0-.68-2.24A2.66,2.66,0,0,0,196.47,38.48Z"/><path class="cls-3" d="M204.6,36.21l-1.22.35v2h-1.47v1h1.47v4.15a2.79,2.79,0,0,0,.59,1.93,2.19,2.19,0,0,0,1.69.64,2.86,2.86,0,0,0,.58-.06,2,2,0,0,0,.5-.14v-1a3.14,3.14,0,0,1-.4.13,2.59,2.59,0,0,1-.51.05,1.11,1.11,0,0,1-.92-.38,2,2,0,0,1-.31-1.28v-4h2.16v-1H204.6Z"/><path class="cls-3" d="M214.52,38.91a3.29,3.29,0,0,0-1.75-.43,3.58,3.58,0,0,0-1.86.48,3.34,3.34,0,0,0-1.26,1.37,4.57,4.57,0,0,0-.45,2.06,3.86,3.86,0,0,0,1,2.86,3.74,3.74,0,0,0,2.79,1,4.7,4.7,0,0,0,1.59-.27,3.22,3.22,0,0,0,1.25-.74l-.42-.85a3.28,3.28,0,0,1-1.13.66,3.76,3.76,0,0,1-1.27.21,2.58,2.58,0,0,1-1.95-.73,2.92,2.92,0,0,1-.69-2.06H216v-.45a4.6,4.6,0,0,0-.37-1.9A2.85,2.85,0,0,0,214.52,38.91Zm-4.1,2.82a3.07,3.07,0,0,1,.6-1.57,2.12,2.12,0,0,1,1.75-.78,1.94,1.94,0,0,1,1.61.67,2.82,2.82,0,0,1,.53,1.68Z"/><path class="cls-3" d="M222.79,38.48a2.75,2.75,0,0,0-1.06.21,2.5,2.5,0,0,0-.89.66,2.2,2.2,0,0,0-.35.6l-.11-1.34h-1.17c0,.29,0,.59.07.9s0,.62,0,.92v5.71h1.23V41.7a2.26,2.26,0,0,1,.25-1.05,2,2,0,0,1,.73-.81,2.08,2.08,0,0,1,1.15-.31,2.89,2.89,0,0,1,.43,0,1.87,1.87,0,0,1,.41.1V38.57a1.07,1.07,0,0,0-.32-.08Z"/></svg>